HIERARCHY
ROOT Hips
{
  OFFSET 26.3183 84.766 -145.109
  CHANNELS 6 Xposition Yposition Zposition Zrotation Xrotation Yrotation
  JOINT Spine
  {
    OFFSET 0 0 10.6299
    CHANNELS 6 Xposition Yposition Zposition Zrotation Xrotation Yrotation
    JOINT Spine1
    {
      OFFSET 0 0 11.3827
      CHANNELS 6 Xposition Yposition Zposition Zrotation Xrotation Yrotation
      JOINT Spine2
      {
        OFFSET 0 0 11.3827
        CHANNELS 6 Xposition Yposition Zposition Zrotation Xrotation Yrotation
        JOINT Spine3
        {
          OFFSET 0 0 11.3827
          CHANNELS 6 Xposition Yposition Zposition Zrotation Xrotation Yrotation
          JOINT Neck
          {
            OFFSET 0 1.56303 11.4229
            CHANNELS 6 Xposition Yposition Zposition Zrotation Xrotation Yrotation
            JOINT Neck1
            {
              OFFSET 0 0 3.9771
              CHANNELS 6 Xposition Yposition Zposition Zrotation Xrotation Yrotation
              JOINT Head
              {
                OFFSET 0 0 3.9771
                CHANNELS 6 Xposition Yposition Zposition Zrotation Xrotation Yrotation
                End Site
                {
                  OFFSET 0 0 9.16737
                }
              }
            }
          }
          JOINT RightShoulder
          {
            OFFSET 1.85242 1.41749 6.61642
            CHANNELS 6 Xposition Yposition Zposition Zrotation Xrotation Yrotation
            JOINT RightArm
            {
              OFFSET 0 0 16.635
              CHANNELS 6 Xposition Yposition Zposition Zrotation Xrotation Yrotation
              JOINT RightForeArm
              {
                OFFSET 0 0 30.827
                CHANNELS 6 Xposition Yposition Zposition Zrotation Xrotation Yrotation
                JOINT RightHand
                {
                  OFFSET 0 0 25.511
                  CHANNELS 6 Xposition Yposition Zposition Zrotation Xrotation Yrotation
                  JOINT RightHandMiddle1
                  {
                    OFFSET 0 0 10
                    CHANNELS 6 Xposition Yposition Zposition Zrotation Xrotation Yrotation
                    End Site
                    {
                      OFFSET 0 0 0
                    }
                  }
                  JOINT RightHandThumb1
                  {
                    OFFSET 1.293 2.402 3.23
                    CHANNELS 6 Xposition Yposition Zposition Zrotation Xrotation Yrotation
                    End Site
                    {
                      OFFSET 0 0 0
                    }
                  }
                }
              }
            }
          }
          JOINT skelenton
          {
            OFFSET -3.08736 1.41749 6.61642
            CHANNELS 6 Xposition Yposition Zposition Zrotation Xrotation Yrotation
            JOINT LeftArm
            {
              OFFSET 0 0 16.635
              CHANNELS 6 Xposition Yposition Zposition Zrotation Xrotation Yrotation
              JOINT LeftForeArm
              {
                OFFSET 0 0 30.827
                CHANNELS 6 Xposition Yposition Zposition Zrotation Xrotation Yrotation
                JOINT LeftHand
                {
                  OFFSET 0 0 25.511
                  CHANNELS 6 Xposition Yposition Zposition Zrotation Xrotation Yrotation
                  JOINT LeftHandMiddle1
                  {
                    OFFSET 0 0 10
                    CHANNELS 6 Xposition Yposition Zposition Zrotation Xrotation Yrotation
                    End Site
                    {
                      OFFSET 0 0 0
                    }
                  }
                  JOINT LeftHandIndex
                  {
                    OFFSET -1.293 2.402 3.23
                    CHANNELS 6 Xposition Yposition Zposition Zrotation Xrotation Yrotation
                    End Site
                    {
                      OFFSET 0 0 0
                    }
                  }
                }
              }
            }
          }
        }
      }
    }
  }
  JOINT RightUpLeg
  {
    OFFSET 9.604 0 0
    CHANNELS 6 Xposition Yposition Zposition Zrotation Xrotation Yrotation
    JOINT RightLeg
    {
      OFFSET 0 0 -41.018
      CHANNELS 6 Xposition Yposition Zposition Zrotation Xrotation Yrotation
      JOINT RightFoot
      {
        OFFSET 0 0 -43.689
        CHANNELS 6 Xposition Yposition Zposition Zrotation Xrotation Yrotation
        JOINT RightToeBase
        {
          OFFSET 0 13.7145 0
          CHANNELS 6 Xposition Yposition Zposition Zrotation Xrotation Yrotation
          End Site
          {
            OFFSET 0 7.12858 0
          }
        }
      }
    }
  }
  JOINT LeftUpLeg
  {
    OFFSET -9.604 0 0
    CHANNELS 6 Xposition Yposition Zposition Zrotation Xrotation Yrotation
    JOINT LeftLeg
    {
      OFFSET 0 0 -41.018
      CHANNELS 6 Xposition Yposition Zposition Zrotation Xrotation Yrotation
      JOINT LeftFoot
      {
        OFFSET 0 0 -43.689
        CHANNELS 6 Xposition Yposition Zposition Zrotation Xrotation Yrotation
        JOINT LeftToeBase
        {
          OFFSET 0 13.7145 0
          CHANNELS 6 Xposition Yposition Zposition Zrotation Xrotation Yrotation
          End Site
          {
            OFFSET 0 7.12844 0
          }
        }
      }
    }
  }
}
MOTION
Frames:	4
Frame Time:	0.00833333
7.25057 86.1524 -28.7861 29.3504 78.9571 153.323 -3.55271e-15 5.32907e-15 10.6299 0.777242 1.45209 -0.330512 0 8.42769e-08 11.3827 0.793559 -13.547 -0.125234 1.77636e-15 -3.53271e-08 11.3827 0.811811 -4.64498 -6.5587 -8.88178e-16 0 11.3827 3.97569e-16 7.95139e-16 -1.09332e-15 1.77636e-15 1.56303 11.4229 1.15757 -15.5041 17.5153 0 -2.70807e-07 3.9771 9.69053e-16 -5 1.99544e-15 -7.10543e-15 4.53122e-07 3.9771 -2.08372 38.3775 -6.95751 1.85242 1.41749 6.61642 -13.968 2.00474 88.4899 0 0 16.635 65.6719 18.5083 23.8562 -2.84217e-14 0 30.827 -76.9717 -12.1451 -43.5653 2.84217e-14 7.10543e-15 25.511 -17.9415 10.6778 59.2283 -5.68434e-14 -1.42109e-14 10 -1.59028e-15 1.59028e-15 7.15625e-15 1.293 2.402 3.23 -2.03135e-06 -45.264 -9.7711e-06 -3.08736 1.41749 6.61642 -12.5044 1.68335 -69.2368 0 0 16.635 -31.2023 46.882 -22.8156 0 -7.10543e-15 30.827 68.397 -26.7506 47.8577 2.84217e-14 1.42109e-14 25.511 10.0398 25.1767 -22.9335 -2.84217e-14 7.10543e-15 10 -3.18055e-15 -5.96354e-16 5.96354e-16 -1.293 2.402 3.23 -3.00938e-16 -45.264 -4.23642e-16 9.604 1.77636e-15 0 -18.3763 -3.45507 -10.6789 0 -3.55271e-15 -41.018 0.00110516 -11.7848 -0.0916247 0 -3.55271e-15 -43.689 -1.33141 -14.7991 0.853177 0 13.7145 1.42109e-14 0.00440767 22.0861 0.0691336 -9.604 3.55271e-15 0 22.5716 -8.38694 6.59486 -7.10543e-15 -3.55271e-15 -41.018 -0.0185929 -8.82626 -0.060956 0 -3.55271e-15 -43.689 9.89584 -18.9978 -0.65313 0 13.7145 1.42109e-14 -0.0155236 30.6295 0.125304 
7.23158 86.1526 -28.7669 29.2499 78.9888 153.424 -1.77636e-15 3.55271e-15 10.6299 0.771262 1.48144 -0.330205 0 8.42769e-08 11.3827 0.787323 -13.5177 -0.126535 1.77636e-15 -3.53271e-08 11.3827 0.805064 -4.65648 -6.5544 2.22045e-15 -7.10543e-15 11.3827 -1.24141e-32 -1.59028e-15 -4.47266e-16 0 1.56303 11.4229 1.15594 -15.5582 17.4999 7.10543e-15 -2.70807e-07 3.9771 -1.04348e-16 -5 -1.19726e-15 -7.10543e-15 4.53122e-07 3.9771 -2.04074 38.3266 -7.05185 1.85242 1.41749 6.61642 -13.9741 1.99237 88.4819 -2.84217e-14 0 16.635 65.713 18.5485 23.8521 -2.84217e-14 1.42109e-14 30.827 -76.9305 -12.197 -43.5873 0 0 25.511 -17.9574 10.6987 59.2048 0 -7.10543e-15 10 -1.59028e-15 -1.59028e-15 9.14409e-15 1.293 2.402 3.23 -2.03135e-06 -45.264 -9.7711e-06 -3.08736 1.41749 6.61642 -12.5095 1.6708 -69.2255 -2.84217e-14 0 16.635 -31.209 46.9633 -22.7834 -1.42109e-14 -7.10543e-15 30.827 68.4684 -26.8353 47.9746 2.84217e-14 1.42109e-14 25.511 10.0787 25.179 -23.012 -1.42109e-14 0 10 -3.18055e-15 -3.97569e-16 -1.19271e-15 -1.293 2.402 3.23 -2.87962e-15 -45.264 4.23642e-16 9.604 1.77636e-15 -1.42109e-14 -18.4383 -3.45493 -10.6755 0 -3.55271e-15 -41.018 0.0011185 -11.7766 -0.091622 -3.55271e-15 0 -43.689 -1.30525 -14.7838 0.853247 0 13.7145 1.59872e-14 0.0044141 22.0812 0.0691312 -9.604 1.77636e-15 0 22.6177 -8.40866 6.61668 0 0 -41.018 -0.0185062 -8.74572 -0.0609428 0 -3.55271e-15 -43.689 9.81521 -19.0242 -0.66543 -7.10543e-15 13.7145 1.42109e-14 -0.0155165 30.6268 0.125301 
7.21282 86.1527 -28.7476 29.1519 79.0209 153.525 -1.77636e-15 -1.77636e-15 10.6299 0.765324 1.5103 -0.33001 0 8.42769e-08 11.3827 0.781133 -13.4888 -0.127936 0 -3.53271e-08 11.3827 0.798439 -4.66686 -6.55128 1.77636e-15 -7.10543e-15 11.3827 7.95139e-16 1.59028e-15 1.2921e-15 8.88178e-16 1.56303 11.4229 1.15558 -15.6112 17.486 0 -2.70807e-07 3.9771 2.17672e-15 -5 -2.39453e-15 0 4.53122e-07 3.9771 -1.99559 38.278 -7.14697 1.85242 1.41749 6.61642 -13.9818 1.98157 88.4757 0 0 16.635 65.7515 18.5866 23.8492 -2.84217e-14 -1.42109e-14 30.827 -76.8905 -12.2477 -43.6095 0 7.10543e-15 25.511 -17.9739 10.7219 59.1775 -5.68434e-14 0 10 1.59028e-15 0 5.56597e-15 1.293 2.402 3.23 -2.03135e-06 -45.264 -9.7711e-06 -3.08736 1.41749 6.61642 -12.516 1.65979 -69.2156 0 -7.10543e-15 16.635 -31.2233 47.0236 -22.7546 -1.42109e-14 7.10543e-15 30.827 68.5333 -26.8996 48.0758 2.84217e-14 0 25.511 10.1168 25.1835 -23.0869 0 -7.10543e-15 10 -3.18055e-15 0 1.39149e-15 -1.293 2.402 3.23 1.30406e-15 -45.264 1.83578e-15 9.604 1.77636e-15 0 -18.4986 -3.45351 -10.6731 0 0 -41.018 0.00113041 -11.7693 -0.0916196 -3.55271e-15 3.55271e-15 -43.689 -1.28081 -14.7675 0.852886 0 13.7145 1.59872e-14 0.00442038 22.0764 0.0691288 -9.604 1.77636e-15 1.42109e-14 22.6565 -8.43584 6.63507 0 0 -41.018 -0.0184107 -8.65697 -0.0609283 0 -3.55271e-15 -43.689 9.74176 -19.0535 -0.677597 7.10543e-15 13.7145 1.42109e-14 -0.0155072 30.6231 0.125296 
7.19461 86.1527 -28.7276 29.0607 79.0541 153.623 -1.77636e-15 1.77636e-15 10.6299 0.75949 1.53794 -0.330094 1.77636e-15 8.42769e-08 11.3827 0.775055 -13.4612 -0.129588 0 -3.53271e-08 11.3827 0.792114 -4.67438 -6.55112 -1.77636e-15 0 11.3827 -3.97569e-16 0 8.44835e-16 0 1.56303 11.4229 1.15844 -15.6611 17.4758 -7.10543e-15 -2.70807e-07 3.9771 -1.52071e-15 -5 7.98176e-16 7.10543e-15 4.53122e-07 3.9771 -1.9447 38.2353 -7.2442 1.85242 1.41749 6.61642 -13.9934 1.97472 88.4739 2.84217e-14 0 16.635 65.7837 18.6193 23.849 -2.84217e-14 1.42109e-14 30.827 -76.8534 -12.2958 -43.6321 0 0 25.511 -17.9919 10.7504 59.1404 -2.84217e-14 0 10 0 0 -7.95139e-16 1.293 2.402 3.23 -2.03135e-06 -45.264 -9.7711e-06 -3.08736 1.41749 6.61642 -12.5258 1.65265 -69.2092 0 0 16.635 -31.2559 47.0315 -22.7345 -1.42109e-14 -7.10543e-15 30.827 68.5806 -26.9137 48.1372 4.26326e-14 0 25.511 10.1527 25.1936 -23.1531 1.42109e-14 -1.42109e-14 10 -3.18055e-15 -5.96354e-16 -1.2921e-15 -1.293 2.402 3.23 -4.68524e-15 -45.264 -2.11821e-15 9.604 0 1.42109e-14 -18.5546 -3.44889 -10.6732 3.55271e-15 0 -41.018 0.00113875 -11.7642 -0.0916179 0 3.55271e-15 -43.689 -1.26064 -14.7485 0.851447 0 13.7145 1.59872e-14 0.00442628 22.0718 0.0691266 -9.604 1.77636e-15 0 22.6773 -8.47665 6.64489 0 -3.55271e-15 -41.018 -0.0182932 -8.54771 -0.0609107 -7.10543e-15 0 -43.689 9.68628 -19.0898 -0.689424 -7.10543e-15 13.7145 1.42109e-14 -0.0154924 30.6173 0.125288 
